<svg xmlns="http://www.w3.org/2000/svg" version="1.1" xmlns:xlink="http://www.w3.org/1999/xlink" width="512" height="512" x="0" y="0" viewBox="0 0 24 24" style="enable-background:new 0 0 512 512" xml:space="preserve" class=""><g><g data-name="Layer 2"><path fill="#0025aa" d="M20.81 9.193a1.356 1.356 0 0 1-.522-1.253c.251-1.963.094-3.11-.513-3.715-.607-.607-1.753-.766-3.715-.512a1.364 1.364 0 0 1-1.253-.523c-1.128-1.443-1.994-2.087-2.809-2.087-.813 0-1.68.643-2.808 2.085a1.37 1.37 0 0 1-1.252.523c-2.515-.326-3.308.102-3.716.51-.606.606-.763 1.752-.512 3.717a1.358 1.358 0 0 1-.522 1.253c-1.442 1.126-2.085 1.992-2.085 2.807 0 .816.643 1.682 2.087 2.81a1.356 1.356 0 0 1 .522 1.252c-.251 1.963-.094 3.11.513 3.715.606.606 1.75.765 3.715.512a1.368 1.368 0 0 1 1.253.523c1.128 1.443 1.995 2.088 2.809 2.088.813 0 1.68-.644 2.808-2.086a1.366 1.366 0 0 1 1.253-.523c2.513.324 3.306-.102 3.715-.51.606-.606.763-1.752.512-3.717a1.358 1.358 0 0 1 .522-1.253c1.442-1.126 2.085-1.992 2.085-2.807 0-.816-.643-1.682-2.087-2.81z" opacity="1" data-original="#2196f3" class=""></path><path fill="#f2f2f2" d="m10.02 15.13-1.814-1.814a1.263 1.263 0 0 1 0-1.785 1.263 1.263 0 0 1 1.786 0l.873.871L14 8.918a1.263 1.263 0 0 1 1.784-.094 1.263 1.263 0 0 1 .094 1.783l-4.027 4.475a1.263 1.263 0 0 1-1.831.048z" opacity="1" data-original="#f2f2f2"></path></g></g></svg>